#!OML:ASF F:\VICON\USERDATA\INSTALL\rory3\rory3.ASF
:FULLY-SPECIFIED
:DEGREES
298
root -0.507504 18.1898 3.18492 -2.90685 -43.2815 0.776519
lowerback 11.3635 -0.865494 -0.0998886
upperback 1.21251 -1.11985 1.20503
thorax -5.07731 -0.548626 1.49084
lowerneck -21.67 -4.86896 -10.1133
upperneck 26.055 -5.61002 6.99799
head 12.7984 -2.61455 3.41409
rclavicle -1.61016e-014 1.19271e-015
rhumerus -39.1999 -18.2483 -75.9197
rradius 27.7227
rwrist 12.7624
rhand -11.524 8.15431
rfingers 7.12502
rthumb 14.5157 -21.3179
lclavicle -1.61016e-014 1.19271e-015
lhumerus -31.4061 -0.435819 85.387
lradius 31.6506
lwrist -12.3509
lhand -13.5163 24.4064
lfingers 7.12502
lthumb 12.5955 54.0067
rfemur -15.2797 4.96083 23.3987
rtibia 32.1211
rfoot -10.9069 -7.57868
rtoes 11.1212
lfemur -2.56349 -4.3243 -20.0035
ltibia 53.2187
lfoot 11.0632 -15.1798
ltoes 1.37323
299
root -0.618111 18.1871 3.26459 -2.86247 -43.1571 0.462879
lowerback 11.5632 -0.825098 0.108861
upperback 1.2667 -1.03888 1.22907
thorax -5.13689 -0.513105 1.38905
lowerneck -21.4831 -4.90787 -10.1473
upperneck 25.8957 -5.68722 7.07365
head 12.7084 -2.64374 3.43349
rclavicle 1.09829e-014 -2.50469e-014
rhumerus -39.0897 -17.8203 -76.2038
rradius 27.9066
rwrist 12.433
rhand -11.4947 8.38871
rfingers 7.12502
rthumb 14.5439 -21.0815
lclavicle 1.09829e-014 -2.50469e-014
lhumerus -31.5076 -0.361622 85.3216
lradius 31.5039
lwrist -12.5447
lhand -13.4164 24.8955
lfingers 7.12502
lthumb 12.6917 54.4898
rfemur -14.5668 4.94116 23.803
rtibia 32.1094
rfoot -11.3069 -7.75848
rtoes 10.9279
lfemur -3.7325 -3.80088 -19.5131
ltibia 54.6652
lfoot 9.26213 -14.9353
ltoes -0.572659
300
root -0.728588 18.1839 3.34296 -2.69133 -43.0199 0.185289
lowerback 11.4962 -0.78387 0.301298
upperback 1.35713 -0.962381 1.23023
thorax -5.00953 -0.480478 1.26714
lowerneck -21.4367 -4.96049 -10.1428
upperneck 25.7827 -5.77138 7.10785
head 12.6637 -2.67497 3.42891
rclavicle -7.63333e-014 -1.74931e-014
rhumerus -38.8838 -17.5793 -76.4239
rradius 28.0756
rwrist 12.2702
rhand -11.3639 8.58868
rfingers 7.12502
rthumb 14.6699 -20.8724
lclavicle -7.63333e-014 -1.74931e-014
lhumerus -31.4123 -0.226462 85.1912
lradius 31.3064
lwrist -12.5394
lhand -13.1182 24.8111
lfingers 7.12502
lthumb 12.9793 54.3874
rfemur -14.0413 4.91291 24.1776
rtibia 32.0999
rfoot -11.6728 -7.96675
rtoes 10.5581
lfemur -5.0449 -3.29823 -19.067
ltibia 55.9203
lfoot 7.73536 -14.5037
ltoes -3.15503
301
root -0.837428 18.1829 3.42115 -2.65181 -42.9391 0.241214
lowerback 11.4112 -0.694048 0.204616
upperback 1.38005 -0.858383 1.18783
thorax -4.9394 -0.427941 1.25934
lowerneck -21.4695 -4.98027 -10.0832
upperneck 25.7549 -5.81616 7.11313
head 12.6619 -2.68656 3.41207
rclavicle -1.56046e-014 -1.98785e-015
rhumerus -38.6824 -17.2125 -76.6935
rradius 28.2402
rwrist 12.1099
rhand -11.3209 8.5346
rfingers 7.12502
rthumb 14.7114 -20.9234
lclavicle -1.56046e-014 -1.98785e-015
lhumerus -31.4282 -0.114079 85.1421
lradius 31.1914
lwrist -12.4809
lhand -12.9963 25.155
lfingers 7.12502
lthumb 13.0968 54.7238
rfemur -13.631 4.88596 24.2755
rtibia 32.1208
rfoot -12.0983 -8.12539
rtoes 10.2219
lfemur -6.41956 -2.78232 -18.9264
ltibia 56.9863
lfoot 6.64166 -13.6478
ltoes -4.98827
302
root -0.944737 18.1852 3.51302 -2.76783 -43.1376 0.330579
lowerback 11.3742 -0.52835 0.144257
upperback 1.4289 -0.650008 1.133
thorax -4.87161 -0.325032 1.20287
lowerneck -21.392 -4.95918 -9.92615
upperneck 25.7155 -5.79899 6.9569
head 12.6173 -2.68476 3.32736
rclavicle -3.71727e-014 1.78906e-014
rhumerus -38.4964 -16.8716 -76.9288
rradius 28.3908
rwrist 12.153
rhand -11.055 8.68477
rfingers 7.12502
rthumb 14.9675 -20.7544
lclavicle -3.71727e-014 1.78906e-014
lhumerus -31.5265 0.194955 85.048
lradius 31.0163
lwrist -12.5381
lhand -13.0794 25.3357
lfingers 7.12502
lthumb 13.0166 54.9096
rfemur -13.0641 5.00876 24.3274
rtibia 32.1616
rfoot -12.5942 -8.13255
rtoes 10.0756
lfemur -7.52561 -2.13172 -18.9196
ltibia 57.8622
lfoot 5.57081 -12.4205
ltoes -6.14669
303
root -1.04945 18.1841 3.60011 -2.83845 -43.1998 0.364504
lowerback 11.3966 -0.402048 0.167185
upperback 1.46463 -0.483872 1.05807
thorax -4.85058 -0.244388 1.08608
lowerneck -21.2562 -5.00119 -10.0334
upperneck 25.5905 -5.89943 7.19098
head 12.5627 -2.71062 3.4175
rclavicle -1.12512e-013 4.37326e-015
rhumerus -38.2392 -16.9594 -77.0046
rradius 28.3736
rwrist 12.4729
rhand -10.8401 8.83638
rfingers 7.12502
rthumb 15.1745 -20.5872
lclavicle -1.12512e-013 4.37326e-015
lhumerus -31.5346 0.641909 84.8203
lradius 30.652
lwrist -12.71
lhand -13.7388 24.8187
lfingers 7.12502
lthumb 12.381 54.4321
rfemur -12.5243 5.07913 24.4206
rtibia 32.2209
rfoot -13.1286 -8.19611
rtoes 10.265
lfemur -8.60838 -1.59324 -18.873
ltibia 58.5795
lfoot 4.30956 -11.1813
ltoes -7.6803
304
root -1.15301 18.1767 3.68388 -2.8566 -43.3035 0.270205
lowerback 11.4076 -0.234253 0.288651
upperback 1.55553 -0.251711 0.98698
thorax -4.76623 -0.133432 0.90716
lowerneck -21.1553 -5.10768 -10.1792
upperneck 25.4505 -6.10389 7.52313
head 12.5262 -2.77283 3.53312
rclavicle 4.96962e-017 1.63003e-014
rhumerus -37.9693 -16.6952 -77.3018
rradius 28.524
rwrist 12.1622
rhand -10.9109 8.69756
rfingers 7.12502
rthumb 15.1063 -20.7312
lclavicle 4.96962e-017 1.63003e-014
lhumerus -31.522 1.19173 84.551
lradius 30.4162
lwrist -13.2005
lhand -14.1721 24.7668
lfingers 7.12502
lthumb 11.9631 54.405
rfemur -11.9745 4.98027 24.6376
rtibia 32.2682
rfoot -13.5853 -8.14854
rtoes 9.86523
lfemur -9.62331 -0.977246 -18.7111
ltibia 59.1239
lfoot 3.1374 -10.0004
ltoes -9.39417
